<?xml version="1.0" encoding="utf-8" standalone="no"?>
<!DOCTYPE svg PUBLIC "-//W3C//DTD SVG 1.1//EN"
  "http://www.w3.org/Graphics/SVG/1.1/DTD/svg11.dtd">
<!-- Created with matplotlib (https://matplotlib.org/) -->
<svg height="288pt" version="1.1" viewBox="0 0 432 288" width="432pt" xmlns="http://www.w3.org/2000/svg" xmlns:xlink="http://www.w3.org/1999/xlink">
 <defs>
  <style type="text/css">
*{stroke-linecap:butt;stroke-linejoin:round;}
  </style>
 </defs>
 <g id="figure_1">
  <g id="patch_1">
   <path d="M 0 288 
L 432 288 
L 432 0 
L 0 0 
z
" style="fill:#ffffff;"/>
  </g>
  <g id="axes_1">
   <g id="patch_2">
    <path d="M 54 252 
L 388.8 252 
L 388.8 34.56 
L 54 34.56 
z
" style="fill:#ffffff;"/>
   </g>
   <g id="PolyCollection_1">
    <path clip-path="url(#p3067e7c471)" d="M 54 247.6512 
L 54 234.6048 
L 55.112292 238.9536 
L 56.224585 225.9072 
L 57.336877 230.256 
L 58.449169 234.6048 
L 59.561462 243.3024 
L 60.673754 243.3024 
L 61.786047 230.256 
L 62.898339 234.6048 
L 64.010631 247.6512 
L 65.122924 243.3024 
L 66.235216 234.6048 
L 67.347508 234.6048 
L 68.459801 234.6048 
L 69.572093 234.6048 
L 70.684385 252 
L 71.796678 234.6048 
L 72.90897 208.512 
L 74.021262 243.3024 
L 75.133555 234.6048 
L 76.245847 238.9536 
L 77.35814 238.9536 
L 78.470432 243.3024 
L 79.582724 238.9536 
L 80.695017 243.3024 
L 81.807309 234.6048 
L 82.919601 238.9536 
L 84.031894 230.256 
L 85.144186 243.3024 
L 86.256478 230.256 
L 87.368771 225.9072 
L 88.481063 243.3024 
L 89.593355 230.256 
L 90.705648 230.256 
L 91.81794 234.6048 
L 92.930233 225.9072 
L 94.042525 221.5584 
L 95.154817 238.9536 
L 96.26711 234.6048 
L 97.379402 238.9536 
L 98.491694 234.6048 
L 99.603987 225.9072 
L 100.716279 221.5584 
L 101.828571 225.9072 
L 102.940864 217.2096 
L 104.053156 230.256 
L 105.165449 230.256 
L 106.277741 234.6048 
L 107.390033 238.9536 
L 108.502326 238.9536 
L 109.614618 225.9072 
L 110.72691 230.256 
L 111.839203 234.6048 
L 112.951495 238.9536 
L 114.063787 221.5584 
L 115.17608 238.9536 
L 116.288372 225.9072 
L 117.400664 238.9536 
L 118.512957 212.8608 
L 119.625249 234.6048 
L 120.737542 238.9536 
L 121.849834 238.9536 
L 122.962126 230.256 
L 124.074419 225.9072 
L 125.186711 221.5584 
L 126.299003 243.3024 
L 127.411296 230.256 
L 128.523588 225.9072 
L 129.63588 238.9536 
L 130.748173 225.9072 
L 131.860465 221.5584 
L 132.972757 238.9536 
L 134.08505 221.5584 
L 135.197342 234.6048 
L 136.309635 238.9536 
L 137.421927 230.256 
L 138.534219 238.9536 
L 139.646512 225.9072 
L 140.758804 225.9072 
L 141.871096 221.5584 
L 142.983389 234.6048 
L 144.095681 238.9536 
L 145.207973 230.256 
L 146.320266 225.9072 
L 147.432558 243.3024 
L 148.54485 243.3024 
L 149.657143 221.5584 
L 150.769435 221.5584 
L 151.881728 247.6512 
L 152.99402 238.9536 
L 154.106312 221.5584 
L 155.218605 217.2096 
L 156.330897 243.3024 
L 157.443189 243.3024 
L 158.555482 238.9536 
L 159.667774 225.9072 
L 160.780066 238.9536 
L 161.892359 221.5584 
L 163.004651 221.5584 
L 164.116944 230.256 
L 165.229236 243.3024 
L 166.341528 234.6048 
L 167.453821 238.9536 
L 168.566113 230.256 
L 169.678405 221.5584 
L 170.790698 230.256 
L 171.90299 230.256 
L 173.015282 234.6048 
L 174.127575 225.9072 
L 175.239867 230.256 
L 176.352159 230.256 
L 177.464452 234.6048 
L 178.576744 221.5584 
L 179.689037 234.6048 
L 180.801329 225.9072 
L 181.913621 243.3024 
L 183.025914 243.3024 
L 184.138206 234.6048 
L 185.250498 243.3024 
L 186.362791 238.9536 
L 187.475083 217.2096 
L 188.587375 217.2096 
L 189.699668 212.8608 
L 190.81196 230.256 
L 191.924252 238.9536 
L 193.036545 238.9536 
L 194.148837 243.3024 
L 195.26113 238.9536 
L 196.373422 221.5584 
L 197.485714 212.8608 
L 198.598007 221.5584 
L 199.710299 234.6048 
L 200.822591 230.256 
L 201.934884 221.5584 
L 203.047176 225.9072 
L 204.159468 243.3024 
L 205.271761 238.9536 
L 206.384053 234.6048 
L 207.496346 238.9536 
L 208.608638 234.6048 
L 209.72093 230.256 
L 210.833223 234.6048 
L 211.945515 238.9536 
L 213.057807 225.9072 
L 214.1701 234.6048 
L 215.282392 247.6512 
L 216.394684 243.3024 
L 217.506977 238.9536 
L 218.619269 238.9536 
L 219.731561 238.9536 
L 220.843854 247.6512 
L 221.956146 243.3024 
L 223.068439 243.3024 
L 224.180731 234.6048 
L 225.293023 217.2096 
L 226.405316 243.3024 
L 227.517608 221.5584 
L 228.6299 234.6048 
L 229.742193 225.9072 
L 230.854485 234.6048 
L 231.966777 221.5584 
L 233.07907 230.256 
L 234.191362 208.512 
L 235.303654 234.6048 
L 236.415947 247.6512 
L 237.528239 230.256 
L 238.640532 238.9536 
L 239.752824 247.6512 
L 240.865116 243.3024 
L 241.977409 243.3024 
L 243.089701 221.5584 
L 244.201993 238.9536 
L 245.314286 247.6512 
L 246.426578 238.9536 
L 247.53887 238.9536 
L 248.651163 243.3024 
L 249.763455 230.256 
L 250.875748 247.6512 
L 251.98804 252 
L 253.100332 243.3024 
L 254.212625 238.9536 
L 255.324917 238.9536 
L 256.437209 238.9536 
L 257.549502 238.9536 
L 258.661794 234.6048 
L 259.774086 247.6512 
L 260.886379 238.9536 
L 261.998671 234.6048 
L 263.110963 243.3024 
L 264.223256 238.9536 
L 265.335548 252 
L 266.447841 243.3024 
L 267.560133 243.3024 
L 268.672425 247.6512 
L 269.784718 247.6512 
L 270.89701 243.3024 
L 272.009302 238.9536 
L 273.121595 234.6048 
L 274.233887 238.9536 
L 275.346179 238.9536 
L 276.458472 247.6512 
L 277.570764 247.6512 
L 278.683056 234.6048 
L 279.795349 225.9072 
L 280.907641 247.6512 
L 282.019934 221.5584 
L 283.132226 238.9536 
L 284.244518 238.9536 
L 285.356811 234.6048 
L 286.469103 247.6512 
L 287.581395 238.9536 
L 288.693688 243.3024 
L 289.80598 230.256 
L 290.918272 243.3024 
L 292.030565 238.9536 
L 293.142857 234.6048 
L 294.25515 238.9536 
L 295.367442 238.9536 
L 296.479734 243.3024 
L 297.592027 243.3024 
L 298.704319 234.6048 
L 299.816611 247.6512 
L 300.928904 247.6512 
L 302.041196 243.3024 
L 303.153488 247.6512 
L 304.265781 247.6512 
L 305.378073 234.6048 
L 306.490365 234.6048 
L 307.602658 238.9536 
L 308.71495 238.9536 
L 309.827243 252 
L 310.939535 252 
L 312.051827 234.6048 
L 313.16412 247.6512 
L 314.276412 243.3024 
L 315.388704 243.3024 
L 316.500997 247.6512 
L 317.613289 243.3024 
L 318.725581 247.6512 
L 319.837874 234.6048 
L 320.950166 230.256 
L 322.062458 247.6512 
L 323.174751 243.3024 
L 324.287043 247.6512 
L 325.399336 225.9072 
L 326.511628 247.6512 
L 327.62392 238.9536 
L 328.736213 247.6512 
L 329.848505 247.6512 
L 330.960797 230.256 
L 332.07309 247.6512 
L 333.185382 234.6048 
L 334.297674 230.256 
L 335.409967 230.256 
L 336.522259 234.6048 
L 337.634551 238.9536 
L 338.746844 221.5584 
L 339.859136 217.2096 
L 340.971429 225.9072 
L 342.083721 212.8608 
L 343.196013 238.9536 
L 344.308306 238.9536 
L 345.420598 221.5584 
L 346.53289 238.9536 
L 347.645183 238.9536 
L 348.757475 221.5584 
L 349.869767 234.6048 
L 350.98206 230.256 
L 352.094352 225.9072 
L 353.206645 238.9536 
L 354.318937 247.6512 
L 355.431229 243.3024 
L 356.543522 225.9072 
L 357.655814 243.3024 
L 358.768106 243.3024 
L 359.880399 243.3024 
L 360.992691 208.512 
L 362.104983 212.8608 
L 363.217276 243.3024 
L 364.329568 247.6512 
L 365.44186 238.9536 
L 366.554153 243.3024 
L 367.666445 247.6512 
L 368.778738 234.6048 
L 369.89103 234.6048 
L 371.003322 243.3024 
L 372.115615 221.5584 
L 373.227907 247.6512 
L 374.340199 234.6048 
L 375.452492 230.256 
L 376.564784 243.3024 
L 377.677076 225.9072 
L 378.789369 234.6048 
L 379.901661 230.256 
L 381.013953 243.3024 
L 382.126246 230.256 
L 383.238538 225.9072 
L 384.350831 247.6512 
L 385.463123 208.512 
L 386.575415 243.3024 
L 387.687708 247.6512 
L 387.687708 252 
L 387.687708 252 
L 386.575415 252 
L 385.463123 243.3024 
L 384.350831 247.6512 
L 383.238538 247.6512 
L 382.126246 247.6512 
L 381.013953 252 
L 379.901661 238.9536 
L 378.789369 247.6512 
L 377.677076 247.6512 
L 376.564784 247.6512 
L 375.452492 252 
L 374.340199 247.6512 
L 373.227907 247.6512 
L 372.115615 247.6512 
L 371.003322 247.6512 
L 369.89103 247.6512 
L 368.778738 252 
L 367.666445 247.6512 
L 366.554153 252 
L 365.44186 252 
L 364.329568 252 
L 363.217276 252 
L 362.104983 247.6512 
L 360.992691 243.3024 
L 359.880399 252 
L 358.768106 243.3024 
L 357.655814 247.6512 
L 356.543522 252 
L 355.431229 252 
L 354.318937 252 
L 353.206645 252 
L 352.094352 247.6512 
L 350.98206 252 
L 349.869767 247.6512 
L 348.757475 252 
L 347.645183 252 
L 346.53289 252 
L 345.420598 247.6512 
L 344.308306 247.6512 
L 343.196013 243.3024 
L 342.083721 247.6512 
L 340.971429 247.6512 
L 339.859136 252 
L 338.746844 247.6512 
L 337.634551 243.3024 
L 336.522259 252 
L 335.409967 247.6512 
L 334.297674 247.6512 
L 333.185382 247.6512 
L 332.07309 247.6512 
L 330.960797 252 
L 329.848505 252 
L 328.736213 252 
L 327.62392 252 
L 326.511628 252 
L 325.399336 247.6512 
L 324.287043 252 
L 323.174751 252 
L 322.062458 247.6512 
L 320.950166 247.6512 
L 319.837874 247.6512 
L 318.725581 252 
L 317.613289 252 
L 316.500997 247.6512 
L 315.388704 247.6512 
L 314.276412 247.6512 
L 313.16412 247.6512 
L 312.051827 243.3024 
L 310.939535 252 
L 309.827243 252 
L 308.71495 247.6512 
L 307.602658 247.6512 
L 306.490365 252 
L 305.378073 252 
L 304.265781 247.6512 
L 303.153488 247.6512 
L 302.041196 252 
L 300.928904 252 
L 299.816611 247.6512 
L 298.704319 247.6512 
L 297.592027 247.6512 
L 296.479734 243.3024 
L 295.367442 247.6512 
L 294.25515 252 
L 293.142857 247.6512 
L 292.030565 252 
L 290.918272 252 
L 289.80598 247.6512 
L 288.693688 252 
L 287.581395 247.6512 
L 286.469103 252 
L 285.356811 247.6512 
L 284.244518 247.6512 
L 283.132226 252 
L 282.019934 247.6512 
L 280.907641 247.6512 
L 279.795349 247.6512 
L 278.683056 243.3024 
L 277.570764 252 
L 276.458472 252 
L 275.346179 247.6512 
L 274.233887 243.3024 
L 273.121595 247.6512 
L 272.009302 247.6512 
L 270.89701 247.6512 
L 269.784718 247.6512 
L 268.672425 247.6512 
L 267.560133 243.3024 
L 266.447841 247.6512 
L 265.335548 252 
L 264.223256 247.6512 
L 263.110963 247.6512 
L 261.998671 247.6512 
L 260.886379 243.3024 
L 259.774086 252 
L 258.661794 243.3024 
L 257.549502 247.6512 
L 256.437209 243.3024 
L 255.324917 252 
L 254.212625 252 
L 253.100332 247.6512 
L 251.98804 252 
L 250.875748 252 
L 249.763455 247.6512 
L 248.651163 247.6512 
L 247.53887 252 
L 246.426578 252 
L 245.314286 252 
L 244.201993 252 
L 243.089701 252 
L 241.977409 252 
L 240.865116 247.6512 
L 239.752824 252 
L 238.640532 243.3024 
L 237.528239 247.6512 
L 236.415947 247.6512 
L 235.303654 252 
L 234.191362 252 
L 233.07907 252 
L 231.966777 252 
L 230.854485 252 
L 229.742193 252 
L 228.6299 247.6512 
L 227.517608 247.6512 
L 226.405316 252 
L 225.293023 252 
L 224.180731 247.6512 
L 223.068439 252 
L 221.956146 247.6512 
L 220.843854 247.6512 
L 219.731561 247.6512 
L 218.619269 243.3024 
L 217.506977 243.3024 
L 216.394684 252 
L 215.282392 252 
L 214.1701 252 
L 213.057807 247.6512 
L 211.945515 247.6512 
L 210.833223 247.6512 
L 209.72093 234.6048 
L 208.608638 252 
L 207.496346 252 
L 206.384053 238.9536 
L 205.271761 252 
L 204.159468 247.6512 
L 203.047176 234.6048 
L 201.934884 243.3024 
L 200.822591 238.9536 
L 199.710299 247.6512 
L 198.598007 247.6512 
L 197.485714 247.6512 
L 196.373422 238.9536 
L 195.26113 252 
L 194.148837 247.6512 
L 193.036545 247.6512 
L 191.924252 243.3024 
L 190.81196 238.9536 
L 189.699668 238.9536 
L 188.587375 247.6512 
L 187.475083 238.9536 
L 186.362791 243.3024 
L 185.250498 247.6512 
L 184.138206 252 
L 183.025914 243.3024 
L 181.913621 247.6512 
L 180.801329 247.6512 
L 179.689037 238.9536 
L 178.576744 243.3024 
L 177.464452 243.3024 
L 176.352159 252 
L 175.239867 234.6048 
L 174.127575 234.6048 
L 173.015282 238.9536 
L 171.90299 234.6048 
L 170.790698 238.9536 
L 169.678405 252 
L 168.566113 243.3024 
L 167.453821 238.9536 
L 166.341528 238.9536 
L 165.229236 247.6512 
L 164.116944 238.9536 
L 163.004651 230.256 
L 161.892359 238.9536 
L 160.780066 243.3024 
L 159.667774 247.6512 
L 158.555482 238.9536 
L 157.443189 243.3024 
L 156.330897 247.6512 
L 155.218605 238.9536 
L 154.106312 252 
L 152.99402 243.3024 
L 151.881728 247.6512 
L 150.769435 243.3024 
L 149.657143 243.3024 
L 148.54485 243.3024 
L 147.432558 247.6512 
L 146.320266 234.6048 
L 145.207973 234.6048 
L 144.095681 243.3024 
L 142.983389 247.6512 
L 141.871096 238.9536 
L 140.758804 238.9536 
L 139.646512 243.3024 
L 138.534219 243.3024 
L 137.421927 238.9536 
L 136.309635 247.6512 
L 135.197342 234.6048 
L 134.08505 221.5584 
L 132.972757 252 
L 131.860465 234.6048 
L 130.748173 225.9072 
L 129.63588 238.9536 
L 128.523588 243.3024 
L 127.411296 238.9536 
L 126.299003 247.6512 
L 125.186711 225.9072 
L 124.074419 225.9072 
L 122.962126 238.9536 
L 121.849834 238.9536 
L 120.737542 247.6512 
L 119.625249 238.9536 
L 118.512957 230.256 
L 117.400664 243.3024 
L 116.288372 238.9536 
L 115.17608 238.9536 
L 114.063787 243.3024 
L 112.951495 238.9536 
L 111.839203 243.3024 
L 110.72691 247.6512 
L 109.614618 234.6048 
L 108.502326 252 
L 107.390033 252 
L 106.277741 238.9536 
L 105.165449 238.9536 
L 104.053156 243.3024 
L 102.940864 225.9072 
L 101.828571 238.9536 
L 100.716279 225.9072 
L 99.603987 252 
L 98.491694 243.3024 
L 97.379402 252 
L 96.26711 247.6512 
L 95.154817 252 
L 94.042525 247.6512 
L 92.930233 252 
L 91.81794 252 
L 90.705648 252 
L 89.593355 252 
L 88.481063 252 
L 87.368771 252 
L 86.256478 247.6512 
L 85.144186 252 
L 84.031894 247.6512 
L 82.919601 252 
L 81.807309 252 
L 80.695017 247.6512 
L 79.582724 247.6512 
L 78.470432 252 
L 77.35814 252 
L 76.245847 247.6512 
L 75.133555 243.3024 
L 74.021262 252 
L 72.90897 247.6512 
L 71.796678 252 
L 70.684385 252 
L 69.572093 247.6512 
L 68.459801 252 
L 67.347508 247.6512 
L 66.235216 252 
L 65.122924 247.6512 
L 64.010631 252 
L 62.898339 247.6512 
L 61.786047 243.3024 
L 60.673754 252 
L 59.561462 252 
L 58.449169 252 
L 57.336877 252 
L 56.224585 243.3024 
L 55.112292 247.6512 
L 54 247.6512 
z
" style="fill:#f08080;fill-opacity:0.5;"/>
   </g>
   <g id="matplotlib.axis_1">
    <g id="xtick_1">
     <g id="line2d_1">
      <path clip-path="url(#p3067e7c471)" d="M 54 252 
L 54 34.56 
" style="fill:none;stroke:#b0b0b0;stroke-linecap:square;stroke-width:0.8;"/>
     </g>
     <g id="line2d_2">
      <defs>
       <path d="M 0 0 
L 0 3.5 
" id="maf0e490124" style="stroke:#000000;stroke-width:0.8;"/>
      </defs>
      <g>
       <use style="stroke:#000000;stroke-width:0.8;" x="54" xlink:href="#maf0e490124" y="252"/>
      </g>
     </g>
     <g id="text_1">
      <!-- 0 -->
      <defs>
       <path d="M 31.78125 66.40625 
Q 24.171875 66.40625 20.328125 58.90625 
Q 16.5 51.421875 16.5 36.375 
Q 16.5 21.390625 20.328125 13.890625 
Q 24.171875 6.390625 31.78125 6.390625 
Q 39.453125 6.390625 43.28125 13.890625 
Q 47.125 21.390625 47.125 36.375 
Q 47.125 51.421875 43.28125 58.90625 
Q 39.453125 66.40625 31.78125 66.40625 
z
M 31.78125 74.21875 
Q 44.046875 74.21875 50.515625 64.515625 
Q 56.984375 54.828125 56.984375 36.375 
Q 56.984375 17.96875 50.515625 8.265625 
Q 44.046875 -1.421875 31.78125 -1.421875 
Q 19.53125 -1.421875 13.0625 8.265625 
Q 6.59375 17.96875 6.59375 36.375 
Q 6.59375 54.828125 13.0625 64.515625 
Q 19.53125 74.21875 31.78125 74.21875 
z
" id="DejaVuSans-48"/>
      </defs>
      <g transform="translate(50.81875 266.598437)scale(0.1 -0.1)">
       <use xlink:href="#DejaVuSans-48"/>
      </g>
     </g>
    </g>
    <g id="xtick_2">
     <g id="line2d_3">
      <path clip-path="url(#p3067e7c471)" d="M 109.614618 252 
L 109.614618 34.56 
" style="fill:none;stroke:#b0b0b0;stroke-linecap:square;stroke-width:0.8;"/>
     </g>
     <g id="line2d_4">
      <g>
       <use style="stroke:#000000;stroke-width:0.8;" x="109.614618" xlink:href="#maf0e490124" y="252"/>
      </g>
     </g>
     <g id="text_2">
      <!-- 50 -->
      <defs>
       <path d="M 10.796875 72.90625 
L 49.515625 72.90625 
L 49.515625 64.59375 
L 19.828125 64.59375 
L 19.828125 46.734375 
Q 21.96875 47.46875 24.109375 47.828125 
Q 26.265625 48.1875 28.421875 48.1875 
Q 40.625 48.1875 47.75 41.5 
Q 54.890625 34.8125 54.890625 23.390625 
Q 54.890625 11.625 47.5625 5.09375 
Q 40.234375 -1.421875 26.90625 -1.421875 
Q 22.3125 -1.421875 17.546875 -0.640625 
Q 12.796875 0.140625 7.71875 1.703125 
L 7.71875 11.625 
Q 12.109375 9.234375 16.796875 8.0625 
Q 21.484375 6.890625 26.703125 6.890625 
Q 35.15625 6.890625 40.078125 11.328125 
Q 45.015625 15.765625 45.015625 23.390625 
Q 45.015625 31 40.078125 35.4375 
Q 35.15625 39.890625 26.703125 39.890625 
Q 22.75 39.890625 18.8125 39.015625 
Q 14.890625 38.140625 10.796875 36.28125 
z
" id="DejaVuSans-53"/>
      </defs>
      <g transform="translate(103.252118 266.598437)scale(0.1 -0.1)">
       <use xlink:href="#DejaVuSans-53"/>
       <use x="63.623047" xlink:href="#DejaVuSans-48"/>
      </g>
     </g>
    </g>
    <g id="xtick_3">
     <g id="line2d_5">
      <path clip-path="url(#p3067e7c471)" d="M 165.229236 252 
L 165.229236 34.56 
" style="fill:none;stroke:#b0b0b0;stroke-linecap:square;stroke-width:0.8;"/>
     </g>
     <g id="line2d_6">
      <g>
       <use style="stroke:#000000;stroke-width:0.8;" x="165.229236" xlink:href="#maf0e490124" y="252"/>
      </g>
     </g>
     <g id="text_3">
      <!-- 100 -->
      <defs>
       <path d="M 12.40625 8.296875 
L 28.515625 8.296875 
L 28.515625 63.921875 
L 10.984375 60.40625 
L 10.984375 69.390625 
L 28.421875 72.90625 
L 38.28125 72.90625 
L 38.28125 8.296875 
L 54.390625 8.296875 
L 54.390625 0 
L 12.40625 0 
z
" id="DejaVuSans-49"/>
      </defs>
      <g transform="translate(155.685486 266.598437)scale(0.1 -0.1)">
       <use xlink:href="#DejaVuSans-49"/>
       <use x="63.623047" xlink:href="#DejaVuSans-48"/>
       <use x="127.246094" xlink:href="#DejaVuSans-48"/>
      </g>
     </g>
    </g>
    <g id="xtick_4">
     <g id="line2d_7">
      <path clip-path="url(#p3067e7c471)" d="M 220.843854 252 
L 220.843854 34.56 
" style="fill:none;stroke:#b0b0b0;stroke-linecap:square;stroke-width:0.8;"/>
     </g>
     <g id="line2d_8">
      <g>
       <use style="stroke:#000000;stroke-width:0.8;" x="220.843854" xlink:href="#maf0e490124" y="252"/>
      </g>
     </g>
     <g id="text_4">
      <!-- 150 -->
      <g transform="translate(211.300104 266.598437)scale(0.1 -0.1)">
       <use xlink:href="#DejaVuSans-49"/>
       <use x="63.623047" xlink:href="#DejaVuSans-53"/>
       <use x="127.246094" xlink:href="#DejaVuSans-48"/>
      </g>
     </g>
    </g>
    <g id="xtick_5">
     <g id="line2d_9">
      <path clip-path="url(#p3067e7c471)" d="M 276.458472 252 
L 276.458472 34.56 
" style="fill:none;stroke:#b0b0b0;stroke-linecap:square;stroke-width:0.8;"/>
     </g>
     <g id="line2d_10">
      <g>
       <use style="stroke:#000000;stroke-width:0.8;" x="276.458472" xlink:href="#maf0e490124" y="252"/>
      </g>
     </g>
     <g id="text_5">
      <!-- 200 -->
      <defs>
       <path d="M 19.1875 8.296875 
L 53.609375 8.296875 
L 53.609375 0 
L 7.328125 0 
L 7.328125 8.296875 
Q 12.9375 14.109375 22.625 23.890625 
Q 32.328125 33.6875 34.8125 36.53125 
Q 39.546875 41.84375 41.421875 45.53125 
Q 43.3125 49.21875 43.3125 52.78125 
Q 43.3125 58.59375 39.234375 62.25 
Q 35.15625 65.921875 28.609375 65.921875 
Q 23.96875 65.921875 18.8125 64.3125 
Q 13.671875 62.703125 7.8125 59.421875 
L 7.8125 69.390625 
Q 13.765625 71.78125 18.9375 73 
Q 24.125 74.21875 28.421875 74.21875 
Q 39.75 74.21875 46.484375 68.546875 
Q 53.21875 62.890625 53.21875 53.421875 
Q 53.21875 48.921875 51.53125 44.890625 
Q 49.859375 40.875 45.40625 35.40625 
Q 44.1875 33.984375 37.640625 27.21875 
Q 31.109375 20.453125 19.1875 8.296875 
z
" id="DejaVuSans-50"/>
      </defs>
      <g transform="translate(266.914722 266.598437)scale(0.1 -0.1)">
       <use xlink:href="#DejaVuSans-50"/>
       <use x="63.623047" xlink:href="#DejaVuSans-48"/>
       <use x="127.246094" xlink:href="#DejaVuSans-48"/>
      </g>
     </g>
    </g>
    <g id="xtick_6">
     <g id="line2d_11">
      <path clip-path="url(#p3067e7c471)" d="M 332.07309 252 
L 332.07309 34.56 
" style="fill:none;stroke:#b0b0b0;stroke-linecap:square;stroke-width:0.8;"/>
     </g>
     <g id="line2d_12">
      <g>
       <use style="stroke:#000000;stroke-width:0.8;" x="332.07309" xlink:href="#maf0e490124" y="252"/>
      </g>
     </g>
     <g id="text_6">
      <!-- 250 -->
      <g transform="translate(322.52934 266.598437)scale(0.1 -0.1)">
       <use xlink:href="#DejaVuSans-50"/>
       <use x="63.623047" xlink:href="#DejaVuSans-53"/>
       <use x="127.246094" xlink:href="#DejaVuSans-48"/>
      </g>
     </g>
    </g>
    <g id="xtick_7">
     <g id="line2d_13">
      <path clip-path="url(#p3067e7c471)" d="M 387.687708 252 
L 387.687708 34.56 
" style="fill:none;stroke:#b0b0b0;stroke-linecap:square;stroke-width:0.8;"/>
     </g>
     <g id="line2d_14">
      <g>
       <use style="stroke:#000000;stroke-width:0.8;" x="387.687708" xlink:href="#maf0e490124" y="252"/>
      </g>
     </g>
     <g id="text_7">
      <!-- 300 -->
      <defs>
       <path d="M 40.578125 39.3125 
Q 47.65625 37.796875 51.625 33 
Q 55.609375 28.21875 55.609375 21.1875 
Q 55.609375 10.40625 48.1875 4.484375 
Q 40.765625 -1.421875 27.09375 -1.421875 
Q 22.515625 -1.421875 17.65625 -0.515625 
Q 12.796875 0.390625 7.625 2.203125 
L 7.625 11.71875 
Q 11.71875 9.328125 16.59375 8.109375 
Q 21.484375 6.890625 26.8125 6.890625 
Q 36.078125 6.890625 40.9375 10.546875 
Q 45.796875 14.203125 45.796875 21.1875 
Q 45.796875 27.640625 41.28125 31.265625 
Q 36.765625 34.90625 28.71875 34.90625 
L 20.21875 34.90625 
L 20.21875 43.015625 
L 29.109375 43.015625 
Q 36.375 43.015625 40.234375 45.921875 
Q 44.09375 48.828125 44.09375 54.296875 
Q 44.09375 59.90625 40.109375 62.90625 
Q 36.140625 65.921875 28.71875 65.921875 
Q 24.65625 65.921875 20.015625 65.03125 
Q 15.375 64.15625 9.8125 62.3125 
L 9.8125 71.09375 
Q 15.4375 72.65625 20.34375 73.4375 
Q 25.25 74.21875 29.59375 74.21875 
Q 40.828125 74.21875 47.359375 69.109375 
Q 53.90625 64.015625 53.90625 55.328125 
Q 53.90625 49.265625 50.4375 45.09375 
Q 46.96875 40.921875 40.578125 39.3125 
z
" id="DejaVuSans-51"/>
      </defs>
      <g transform="translate(378.143958 266.598437)scale(0.1 -0.1)">
       <use xlink:href="#DejaVuSans-51"/>
       <use x="63.623047" xlink:href="#DejaVuSans-48"/>
       <use x="127.246094" xlink:href="#DejaVuSans-48"/>
      </g>
     </g>
    </g>
    <g id="text_8">
     <!-- learning iterations -->
     <defs>
      <path d="M 9.421875 75.984375 
L 18.40625 75.984375 
L 18.40625 0 
L 9.421875 0 
z
" id="DejaVuSans-108"/>
      <path d="M 56.203125 29.59375 
L 56.203125 25.203125 
L 14.890625 25.203125 
Q 15.484375 15.921875 20.484375 11.0625 
Q 25.484375 6.203125 34.421875 6.203125 
Q 39.59375 6.203125 44.453125 7.46875 
Q 49.3125 8.734375 54.109375 11.28125 
L 54.109375 2.78125 
Q 49.265625 0.734375 44.1875 -0.34375 
Q 39.109375 -1.421875 33.890625 -1.421875 
Q 20.796875 -1.421875 13.15625 6.1875 
Q 5.515625 13.8125 5.515625 26.8125 
Q 5.515625 40.234375 12.765625 48.109375 
Q 20.015625 56 32.328125 56 
Q 43.359375 56 49.78125 48.890625 
Q 56.203125 41.796875 56.203125 29.59375 
z
M 47.21875 32.234375 
Q 47.125 39.59375 43.09375 43.984375 
Q 39.0625 48.390625 32.421875 48.390625 
Q 24.90625 48.390625 20.390625 44.140625 
Q 15.875 39.890625 15.1875 32.171875 
z
" id="DejaVuSans-101"/>
      <path d="M 34.28125 27.484375 
Q 23.390625 27.484375 19.1875 25 
Q 14.984375 22.515625 14.984375 16.5 
Q 14.984375 11.71875 18.140625 8.90625 
Q 21.296875 6.109375 26.703125 6.109375 
Q 34.1875 6.109375 38.703125 11.40625 
Q 43.21875 16.703125 43.21875 25.484375 
L 43.21875 27.484375 
z
M 52.203125 31.203125 
L 52.203125 0 
L 43.21875 0 
L 43.21875 8.296875 
Q 40.140625 3.328125 35.546875 0.953125 
Q 30.953125 -1.421875 24.3125 -1.421875 
Q 15.921875 -1.421875 10.953125 3.296875 
Q 6 8.015625 6 15.921875 
Q 6 25.140625 12.171875 29.828125 
Q 18.359375 34.515625 30.609375 34.515625 
L 43.21875 34.515625 
L 43.21875 35.40625 
Q 43.21875 41.609375 39.140625 45 
Q 35.0625 48.390625 27.6875 48.390625 
Q 23 48.390625 18.546875 47.265625 
Q 14.109375 46.140625 10.015625 43.890625 
L 10.015625 52.203125 
Q 14.9375 54.109375 19.578125 55.046875 
Q 24.21875 56 28.609375 56 
Q 40.484375 56 46.34375 49.84375 
Q 52.203125 43.703125 52.203125 31.203125 
z
" id="DejaVuSans-97"/>
      <path d="M 41.109375 46.296875 
Q 39.59375 47.171875 37.8125 47.578125 
Q 36.03125 48 33.890625 48 
Q 26.265625 48 22.1875 43.046875 
Q 18.109375 38.09375 18.109375 28.8125 
L 18.109375 0 
L 9.078125 0 
L 9.078125 54.6875 
L 18.109375 54.6875 
L 18.109375 46.1875 
Q 20.953125 51.171875 25.484375 53.578125 
Q 30.03125 56 36.53125 56 
Q 37.453125 56 38.578125 55.875 
Q 39.703125 55.765625 41.0625 55.515625 
z
" id="DejaVuSans-114"/>
      <path d="M 54.890625 33.015625 
L 54.890625 0 
L 45.90625 0 
L 45.90625 32.71875 
Q 45.90625 40.484375 42.875 44.328125 
Q 39.84375 48.1875 33.796875 48.1875 
Q 26.515625 48.1875 22.3125 43.546875 
Q 18.109375 38.921875 18.109375 30.90625 
L 18.109375 0 
L 9.078125 0 
L 9.078125 54.6875 
L 18.109375 54.6875 
L 18.109375 46.1875 
Q 21.34375 51.125 25.703125 53.5625 
Q 30.078125 56 35.796875 56 
Q 45.21875 56 50.046875 50.171875 
Q 54.890625 44.34375 54.890625 33.015625 
z
" id="DejaVuSans-110"/>
      <path d="M 9.421875 54.6875 
L 18.40625 54.6875 
L 18.40625 0 
L 9.421875 0 
z
M 9.421875 75.984375 
L 18.40625 75.984375 
L 18.40625 64.59375 
L 9.421875 64.59375 
z
" id="DejaVuSans-105"/>
      <path d="M 45.40625 27.984375 
Q 45.40625 37.75 41.375 43.109375 
Q 37.359375 48.484375 30.078125 48.484375 
Q 22.859375 48.484375 18.828125 43.109375 
Q 14.796875 37.75 14.796875 27.984375 
Q 14.796875 18.265625 18.828125 12.890625 
Q 22.859375 7.515625 30.078125 7.515625 
Q 37.359375 7.515625 41.375 12.890625 
Q 45.40625 18.265625 45.40625 27.984375 
z
M 54.390625 6.78125 
Q 54.390625 -7.171875 48.1875 -13.984375 
Q 42 -20.796875 29.203125 -20.796875 
Q 24.46875 -20.796875 20.265625 -20.09375 
Q 16.0625 -19.390625 12.109375 -17.921875 
L 12.109375 -9.1875 
Q 16.0625 -11.328125 19.921875 -12.34375 
Q 23.78125 -13.375 27.78125 -13.375 
Q 36.625 -13.375 41.015625 -8.765625 
Q 45.40625 -4.15625 45.40625 5.171875 
L 45.40625 9.625 
Q 42.625 4.78125 38.28125 2.390625 
Q 33.9375 0 27.875 0 
Q 17.828125 0 11.671875 7.65625 
Q 5.515625 15.328125 5.515625 27.984375 
Q 5.515625 40.671875 11.671875 48.328125 
Q 17.828125 56 27.875 56 
Q 33.9375 56 38.28125 53.609375 
Q 42.625 51.21875 45.40625 46.390625 
L 45.40625 54.6875 
L 54.390625 54.6875 
z
" id="DejaVuSans-103"/>
      <path id="DejaVuSans-32"/>
      <path d="M 18.3125 70.21875 
L 18.3125 54.6875 
L 36.8125 54.6875 
L 36.8125 47.703125 
L 18.3125 47.703125 
L 18.3125 18.015625 
Q 18.3125 11.328125 20.140625 9.421875 
Q 21.96875 7.515625 27.59375 7.515625 
L 36.8125 7.515625 
L 36.8125 0 
L 27.59375 0 
Q 17.1875 0 13.234375 3.875 
Q 9.28125 7.765625 9.28125 18.015625 
L 9.28125 47.703125 
L 2.6875 47.703125 
L 2.6875 54.6875 
L 9.28125 54.6875 
L 9.28125 70.21875 
z
" id="DejaVuSans-116"/>
      <path d="M 30.609375 48.390625 
Q 23.390625 48.390625 19.1875 42.75 
Q 14.984375 37.109375 14.984375 27.296875 
Q 14.984375 17.484375 19.15625 11.84375 
Q 23.34375 6.203125 30.609375 6.203125 
Q 37.796875 6.203125 41.984375 11.859375 
Q 46.1875 17.53125 46.1875 27.296875 
Q 46.1875 37.015625 41.984375 42.703125 
Q 37.796875 48.390625 30.609375 48.390625 
z
M 30.609375 56 
Q 42.328125 56 49.015625 48.375 
Q 55.71875 40.765625 55.71875 27.296875 
Q 55.71875 13.875 49.015625 6.21875 
Q 42.328125 -1.421875 30.609375 -1.421875 
Q 18.84375 -1.421875 12.171875 6.21875 
Q 5.515625 13.875 5.515625 27.296875 
Q 5.515625 40.765625 12.171875 48.375 
Q 18.84375 56 30.609375 56 
z
" id="DejaVuSans-111"/>
      <path d="M 44.28125 53.078125 
L 44.28125 44.578125 
Q 40.484375 46.53125 36.375 47.5 
Q 32.28125 48.484375 27.875 48.484375 
Q 21.1875 48.484375 17.84375 46.4375 
Q 14.5 44.390625 14.5 40.28125 
Q 14.5 37.15625 16.890625 35.375 
Q 19.28125 33.59375 26.515625 31.984375 
L 29.59375 31.296875 
Q 39.15625 29.25 43.1875 25.515625 
Q 47.21875 21.78125 47.21875 15.09375 
Q 47.21875 7.46875 41.1875 3.015625 
Q 35.15625 -1.421875 24.609375 -1.421875 
Q 20.21875 -1.421875 15.453125 -0.5625 
Q 10.6875 0.296875 5.421875 2 
L 5.421875 11.28125 
Q 10.40625 8.6875 15.234375 7.390625 
Q 20.0625 6.109375 24.8125 6.109375 
Q 31.15625 6.109375 34.5625 8.28125 
Q 37.984375 10.453125 37.984375 14.40625 
Q 37.984375 18.0625 35.515625 20.015625 
Q 33.0625 21.96875 24.703125 23.78125 
L 21.578125 24.515625 
Q 13.234375 26.265625 9.515625 29.90625 
Q 5.8125 33.546875 5.8125 39.890625 
Q 5.8125 47.609375 11.28125 51.796875 
Q 16.75 56 26.8125 56 
Q 31.78125 56 36.171875 55.265625 
Q 40.578125 54.546875 44.28125 53.078125 
z
" id="DejaVuSans-115"/>
     </defs>
     <g transform="translate(175.598437 280.276563)scale(0.1 -0.1)">
      <use xlink:href="#DejaVuSans-108"/>
      <use x="27.783203" xlink:href="#DejaVuSans-101"/>
      <use x="89.306641" xlink:href="#DejaVuSans-97"/>
      <use x="150.585938" xlink:href="#DejaVuSans-114"/>
      <use x="191.683594" xlink:href="#DejaVuSans-110"/>
      <use x="255.0625" xlink:href="#DejaVuSans-105"/>
      <use x="282.845703" xlink:href="#DejaVuSans-110"/>
      <use x="346.224609" xlink:href="#DejaVuSans-103"/>
      <use x="409.701172" xlink:href="#DejaVuSans-32"/>
      <use x="441.488281" xlink:href="#DejaVuSans-105"/>
      <use x="469.271484" xlink:href="#DejaVuSans-116"/>
      <use x="508.480469" xlink:href="#DejaVuSans-101"/>
      <use x="570.003906" xlink:href="#DejaVuSans-114"/>
      <use x="611.117188" xlink:href="#DejaVuSans-97"/>
      <use x="672.396484" xlink:href="#DejaVuSans-116"/>
      <use x="711.605469" xlink:href="#DejaVuSans-105"/>
      <use x="739.388672" xlink:href="#DejaVuSans-111"/>
      <use x="800.570312" xlink:href="#DejaVuSans-110"/>
      <use x="863.949219" xlink:href="#DejaVuSans-115"/>
     </g>
    </g>
   </g>
   <g id="matplotlib.axis_2">
    <g id="ytick_1">
     <g id="line2d_15">
      <path clip-path="url(#p3067e7c471)" d="M 54 252 
L 388.8 252 
" style="fill:none;stroke:#b0b0b0;stroke-linecap:square;stroke-width:0.8;"/>
     </g>
     <g id="line2d_16">
      <defs>
       <path d="M 0 0 
L -3.5 0 
" id="md1a874341d" style="stroke:#000000;stroke-width:0.8;"/>
      </defs>
      <g>
       <use style="stroke:#000000;stroke-width:0.8;" x="54" xlink:href="#md1a874341d" y="252"/>
      </g>
     </g>
     <g id="text_9">
      <!-- 0.0 -->
      <defs>
       <path d="M 10.6875 12.40625 
L 21 12.40625 
L 21 0 
L 10.6875 0 
z
" id="DejaVuSans-46"/>
      </defs>
      <g transform="translate(31.096875 255.799219)scale(0.1 -0.1)">
       <use xlink:href="#DejaVuSans-48"/>
       <use x="63.623047" xlink:href="#DejaVuSans-46"/>
       <use x="95.410156" xlink:href="#DejaVuSans-48"/>
      </g>
     </g>
    </g>
    <g id="ytick_2">
     <g id="line2d_17">
      <path clip-path="url(#p3067e7c471)" d="M 54 208.512 
L 388.8 208.512 
" style="fill:none;stroke:#b0b0b0;stroke-linecap:square;stroke-width:0.8;"/>
     </g>
     <g id="line2d_18">
      <g>
       <use style="stroke:#000000;stroke-width:0.8;" x="54" xlink:href="#md1a874341d" y="208.512"/>
      </g>
     </g>
     <g id="text_10">
      <!-- 0.2 -->
      <g transform="translate(31.096875 212.311219)scale(0.1 -0.1)">
       <use xlink:href="#DejaVuSans-48"/>
       <use x="63.623047" xlink:href="#DejaVuSans-46"/>
       <use x="95.410156" xlink:href="#DejaVuSans-50"/>
      </g>
     </g>
    </g>
    <g id="ytick_3">
     <g id="line2d_19">
      <path clip-path="url(#p3067e7c471)" d="M 54 165.024 
L 388.8 165.024 
" style="fill:none;stroke:#b0b0b0;stroke-linecap:square;stroke-width:0.8;"/>
     </g>
     <g id="line2d_20">
      <g>
       <use style="stroke:#000000;stroke-width:0.8;" x="54" xlink:href="#md1a874341d" y="165.024"/>
      </g>
     </g>
     <g id="text_11">
      <!-- 0.4 -->
      <defs>
       <path d="M 37.796875 64.3125 
L 12.890625 25.390625 
L 37.796875 25.390625 
z
M 35.203125 72.90625 
L 47.609375 72.90625 
L 47.609375 25.390625 
L 58.015625 25.390625 
L 58.015625 17.1875 
L 47.609375 17.1875 
L 47.609375 0 
L 37.796875 0 
L 37.796875 17.1875 
L 4.890625 17.1875 
L 4.890625 26.703125 
z
" id="DejaVuSans-52"/>
      </defs>
      <g transform="translate(31.096875 168.823219)scale(0.1 -0.1)">
       <use xlink:href="#DejaVuSans-48"/>
       <use x="63.623047" xlink:href="#DejaVuSans-46"/>
       <use x="95.410156" xlink:href="#DejaVuSans-52"/>
      </g>
     </g>
    </g>
    <g id="ytick_4">
     <g id="line2d_21">
      <path clip-path="url(#p3067e7c471)" d="M 54 121.536 
L 388.8 121.536 
" style="fill:none;stroke:#b0b0b0;stroke-linecap:square;stroke-width:0.8;"/>
     </g>
     <g id="line2d_22">
      <g>
       <use style="stroke:#000000;stroke-width:0.8;" x="54" xlink:href="#md1a874341d" y="121.536"/>
      </g>
     </g>
     <g id="text_12">
      <!-- 0.6 -->
      <defs>
       <path d="M 33.015625 40.375 
Q 26.375 40.375 22.484375 35.828125 
Q 18.609375 31.296875 18.609375 23.390625 
Q 18.609375 15.53125 22.484375 10.953125 
Q 26.375 6.390625 33.015625 6.390625 
Q 39.65625 6.390625 43.53125 10.953125 
Q 47.40625 15.53125 47.40625 23.390625 
Q 47.40625 31.296875 43.53125 35.828125 
Q 39.65625 40.375 33.015625 40.375 
z
M 52.59375 71.296875 
L 52.59375 62.3125 
Q 48.875 64.0625 45.09375 64.984375 
Q 41.3125 65.921875 37.59375 65.921875 
Q 27.828125 65.921875 22.671875 59.328125 
Q 17.53125 52.734375 16.796875 39.40625 
Q 19.671875 43.65625 24.015625 45.921875 
Q 28.375 48.1875 33.59375 48.1875 
Q 44.578125 48.1875 50.953125 41.515625 
Q 57.328125 34.859375 57.328125 23.390625 
Q 57.328125 12.15625 50.6875 5.359375 
Q 44.046875 -1.421875 33.015625 -1.421875 
Q 20.359375 -1.421875 13.671875 8.265625 
Q 6.984375 17.96875 6.984375 36.375 
Q 6.984375 53.65625 15.1875 63.9375 
Q 23.390625 74.21875 37.203125 74.21875 
Q 40.921875 74.21875 44.703125 73.484375 
Q 48.484375 72.75 52.59375 71.296875 
z
" id="DejaVuSans-54"/>
      </defs>
      <g transform="translate(31.096875 125.335219)scale(0.1 -0.1)">
       <use xlink:href="#DejaVuSans-48"/>
       <use x="63.623047" xlink:href="#DejaVuSans-46"/>
       <use x="95.410156" xlink:href="#DejaVuSans-54"/>
      </g>
     </g>
    </g>
    <g id="ytick_5">
     <g id="line2d_23">
      <path clip-path="url(#p3067e7c471)" d="M 54 78.048 
L 388.8 78.048 
" style="fill:none;stroke:#b0b0b0;stroke-linecap:square;stroke-width:0.8;"/>
     </g>
     <g id="line2d_24">
      <g>
       <use style="stroke:#000000;stroke-width:0.8;" x="54" xlink:href="#md1a874341d" y="78.048"/>
      </g>
     </g>
     <g id="text_13">
      <!-- 0.8 -->
      <defs>
       <path d="M 31.78125 34.625 
Q 24.75 34.625 20.71875 30.859375 
Q 16.703125 27.09375 16.703125 20.515625 
Q 16.703125 13.921875 20.71875 10.15625 
Q 24.75 6.390625 31.78125 6.390625 
Q 38.8125 6.390625 42.859375 10.171875 
Q 46.921875 13.96875 46.921875 20.515625 
Q 46.921875 27.09375 42.890625 30.859375 
Q 38.875 34.625 31.78125 34.625 
z
M 21.921875 38.8125 
Q 15.578125 40.375 12.03125 44.71875 
Q 8.5 49.078125 8.5 55.328125 
Q 8.5 64.0625 14.71875 69.140625 
Q 20.953125 74.21875 31.78125 74.21875 
Q 42.671875 74.21875 48.875 69.140625 
Q 55.078125 64.0625 55.078125 55.328125 
Q 55.078125 49.078125 51.53125 44.71875 
Q 48 40.375 41.703125 38.8125 
Q 48.828125 37.15625 52.796875 32.3125 
Q 56.78125 27.484375 56.78125 20.515625 
Q 56.78125 9.90625 50.3125 4.234375 
Q 43.84375 -1.421875 31.78125 -1.421875 
Q 19.734375 -1.421875 13.25 4.234375 
Q 6.78125 9.90625 6.78125 20.515625 
Q 6.78125 27.484375 10.78125 32.3125 
Q 14.796875 37.15625 21.921875 38.8125 
z
M 18.3125 54.390625 
Q 18.3125 48.734375 21.84375 45.5625 
Q 25.390625 42.390625 31.78125 42.390625 
Q 38.140625 42.390625 41.71875 45.5625 
Q 45.3125 48.734375 45.3125 54.390625 
Q 45.3125 60.0625 41.71875 63.234375 
Q 38.140625 66.40625 31.78125 66.40625 
Q 25.390625 66.40625 21.84375 63.234375 
Q 18.3125 60.0625 18.3125 54.390625 
z
" id="DejaVuSans-56"/>
      </defs>
      <g transform="translate(31.096875 81.847219)scale(0.1 -0.1)">
       <use xlink:href="#DejaVuSans-48"/>
       <use x="63.623047" xlink:href="#DejaVuSans-46"/>
       <use x="95.410156" xlink:href="#DejaVuSans-56"/>
      </g>
     </g>
    </g>
    <g id="ytick_6">
     <g id="line2d_25">
      <path clip-path="url(#p3067e7c471)" d="M 54 34.56 
L 388.8 34.56 
" style="fill:none;stroke:#b0b0b0;stroke-linecap:square;stroke-width:0.8;"/>
     </g>
     <g id="line2d_26">
      <g>
       <use style="stroke:#000000;stroke-width:0.8;" x="54" xlink:href="#md1a874341d" y="34.56"/>
      </g>
     </g>
     <g id="text_14">
      <!-- 1.0 -->
      <g transform="translate(31.096875 38.359219)scale(0.1 -0.1)">
       <use xlink:href="#DejaVuSans-49"/>
       <use x="63.623047" xlink:href="#DejaVuSans-46"/>
       <use x="95.410156" xlink:href="#DejaVuSans-48"/>
      </g>
     </g>
    </g>
    <g id="text_15">
     <!-- average success probability -->
     <defs>
      <path d="M 2.984375 54.6875 
L 12.5 54.6875 
L 29.59375 8.796875 
L 46.6875 54.6875 
L 56.203125 54.6875 
L 35.6875 0 
L 23.484375 0 
z
" id="DejaVuSans-118"/>
      <path d="M 8.5 21.578125 
L 8.5 54.6875 
L 17.484375 54.6875 
L 17.484375 21.921875 
Q 17.484375 14.15625 20.5 10.265625 
Q 23.53125 6.390625 29.59375 6.390625 
Q 36.859375 6.390625 41.078125 11.03125 
Q 45.3125 15.671875 45.3125 23.6875 
L 45.3125 54.6875 
L 54.296875 54.6875 
L 54.296875 0 
L 45.3125 0 
L 45.3125 8.40625 
Q 42.046875 3.421875 37.71875 1 
Q 33.40625 -1.421875 27.6875 -1.421875 
Q 18.265625 -1.421875 13.375 4.4375 
Q 8.5 10.296875 8.5 21.578125 
z
M 31.109375 56 
z
" id="DejaVuSans-117"/>
      <path d="M 48.78125 52.59375 
L 48.78125 44.1875 
Q 44.96875 46.296875 41.140625 47.34375 
Q 37.3125 48.390625 33.40625 48.390625 
Q 24.65625 48.390625 19.8125 42.84375 
Q 14.984375 37.3125 14.984375 27.296875 
Q 14.984375 17.28125 19.8125 11.734375 
Q 24.65625 6.203125 33.40625 6.203125 
Q 37.3125 6.203125 41.140625 7.25 
Q 44.96875 8.296875 48.78125 10.40625 
L 48.78125 2.09375 
Q 45.015625 0.34375 40.984375 -0.53125 
Q 36.96875 -1.421875 32.421875 -1.421875 
Q 20.0625 -1.421875 12.78125 6.34375 
Q 5.515625 14.109375 5.515625 27.296875 
Q 5.515625 40.671875 12.859375 48.328125 
Q 20.21875 56 33.015625 56 
Q 37.15625 56 41.109375 55.140625 
Q 45.0625 54.296875 48.78125 52.59375 
z
" id="DejaVuSans-99"/>
      <path d="M 18.109375 8.203125 
L 18.109375 -20.796875 
L 9.078125 -20.796875 
L 9.078125 54.6875 
L 18.109375 54.6875 
L 18.109375 46.390625 
Q 20.953125 51.265625 25.265625 53.625 
Q 29.59375 56 35.59375 56 
Q 45.5625 56 51.78125 48.09375 
Q 58.015625 40.1875 58.015625 27.296875 
Q 58.015625 14.40625 51.78125 6.484375 
Q 45.5625 -1.421875 35.59375 -1.421875 
Q 29.59375 -1.421875 25.265625 0.953125 
Q 20.953125 3.328125 18.109375 8.203125 
z
M 48.6875 27.296875 
Q 48.6875 37.203125 44.609375 42.84375 
Q 40.53125 48.484375 33.40625 48.484375 
Q 26.265625 48.484375 22.1875 42.84375 
Q 18.109375 37.203125 18.109375 27.296875 
Q 18.109375 17.390625 22.1875 11.75 
Q 26.265625 6.109375 33.40625 6.109375 
Q 40.53125 6.109375 44.609375 11.75 
Q 48.6875 17.390625 48.6875 27.296875 
z
" id="DejaVuSans-112"/>
      <path d="M 48.6875 27.296875 
Q 48.6875 37.203125 44.609375 42.84375 
Q 40.53125 48.484375 33.40625 48.484375 
Q 26.265625 48.484375 22.1875 42.84375 
Q 18.109375 37.203125 18.109375 27.296875 
Q 18.109375 17.390625 22.1875 11.75 
Q 26.265625 6.109375 33.40625 6.109375 
Q 40.53125 6.109375 44.609375 11.75 
Q 48.6875 17.390625 48.6875 27.296875 
z
M 18.109375 46.390625 
Q 20.953125 51.265625 25.265625 53.625 
Q 29.59375 56 35.59375 56 
Q 45.5625 56 51.78125 48.09375 
Q 58.015625 40.1875 58.015625 27.296875 
Q 58.015625 14.40625 51.78125 6.484375 
Q 45.5625 -1.421875 35.59375 -1.421875 
Q 29.59375 -1.421875 25.265625 0.953125 
Q 20.953125 3.328125 18.109375 8.203125 
L 18.109375 0 
L 9.078125 0 
L 9.078125 75.984375 
L 18.109375 75.984375 
z
" id="DejaVuSans-98"/>
      <path d="M 32.171875 -5.078125 
Q 28.375 -14.84375 24.75 -17.8125 
Q 21.140625 -20.796875 15.09375 -20.796875 
L 7.90625 -20.796875 
L 7.90625 -13.28125 
L 13.1875 -13.28125 
Q 16.890625 -13.28125 18.9375 -11.515625 
Q 21 -9.765625 23.484375 -3.21875 
L 25.09375 0.875 
L 2.984375 54.6875 
L 12.5 54.6875 
L 29.59375 11.921875 
L 46.6875 54.6875 
L 56.203125 54.6875 
z
" id="DejaVuSans-121"/>
     </defs>
     <g transform="translate(25.017187 213.272969)rotate(-90)scale(0.1 -0.1)">
      <use xlink:href="#DejaVuSans-97"/>
      <use x="61.279297" xlink:href="#DejaVuSans-118"/>
      <use x="120.458984" xlink:href="#DejaVuSans-101"/>
      <use x="181.982422" xlink:href="#DejaVuSans-114"/>
      <use x="223.095703" xlink:href="#DejaVuSans-97"/>
      <use x="284.375" xlink:href="#DejaVuSans-103"/>
      <use x="347.851562" xlink:href="#DejaVuSans-101"/>
      <use x="409.375" xlink:href="#DejaVuSans-32"/>
      <use x="441.162109" xlink:href="#DejaVuSans-115"/>
      <use x="493.261719" xlink:href="#DejaVuSans-117"/>
      <use x="556.640625" xlink:href="#DejaVuSans-99"/>
      <use x="611.621094" xlink:href="#DejaVuSans-99"/>
      <use x="666.601562" xlink:href="#DejaVuSans-101"/>
      <use x="728.125" xlink:href="#DejaVuSans-115"/>
      <use x="780.224609" xlink:href="#DejaVuSans-115"/>
      <use x="832.324219" xlink:href="#DejaVuSans-32"/>
      <use x="864.111328" xlink:href="#DejaVuSans-112"/>
      <use x="927.587891" xlink:href="#DejaVuSans-114"/>
      <use x="968.669922" xlink:href="#DejaVuSans-111"/>
      <use x="1029.851562" xlink:href="#DejaVuSans-98"/>
      <use x="1093.328125" xlink:href="#DejaVuSans-97"/>
      <use x="1154.607422" xlink:href="#DejaVuSans-98"/>
      <use x="1218.083984" xlink:href="#DejaVuSans-105"/>
      <use x="1245.867188" xlink:href="#DejaVuSans-108"/>
      <use x="1273.650391" xlink:href="#DejaVuSans-105"/>
      <use x="1301.433594" xlink:href="#DejaVuSans-116"/>
      <use x="1340.642578" xlink:href="#DejaVuSans-121"/>
     </g>
    </g>
   </g>
   <g id="line2d_27">
    <path clip-path="url(#p3067e7c471)" d="M 54 241.128 
L 55.112292 243.3024 
L 56.224585 234.6048 
L 57.336877 241.128 
L 58.449169 243.3024 
L 59.561462 247.6512 
L 60.673754 247.6512 
L 61.786047 236.7792 
L 62.898339 241.128 
L 64.010631 249.8256 
L 65.122924 245.4768 
L 67.347508 241.128 
L 68.459801 243.3024 
L 69.572093 241.128 
L 70.684385 252 
L 71.796678 243.3024 
L 72.90897 228.0816 
L 74.021262 247.6512 
L 75.133555 238.9536 
L 76.245847 243.3024 
L 78.470432 247.6512 
L 79.582724 243.3024 
L 80.695017 245.4768 
L 81.807309 243.3024 
L 82.919601 245.4768 
L 84.031894 238.9536 
L 85.144186 247.6512 
L 86.256478 238.9536 
L 87.368771 238.9536 
L 88.481063 247.6512 
L 89.593355 241.128 
L 90.705648 241.128 
L 91.81794 243.3024 
L 94.042525 234.6048 
L 95.154817 245.4768 
L 96.26711 241.128 
L 97.379402 245.4768 
L 98.491694 238.9536 
L 99.603987 238.9536 
L 100.716279 223.7328 
L 101.828571 232.4304 
L 102.940864 221.5584 
L 104.053156 236.7792 
L 105.165449 234.6048 
L 106.277741 236.7792 
L 107.390033 245.4768 
L 108.502326 245.4768 
L 109.614618 230.256 
L 110.72691 238.9536 
L 112.951495 238.9536 
L 114.063787 232.4304 
L 115.17608 238.9536 
L 116.288372 232.4304 
L 117.400664 241.128 
L 118.512957 221.5584 
L 119.625249 236.7792 
L 120.737542 243.3024 
L 122.962126 234.6048 
L 124.074419 225.9072 
L 125.186711 223.7328 
L 126.299003 245.4768 
L 127.411296 234.6048 
L 128.523588 234.6048 
L 129.63588 238.9536 
L 130.748173 225.9072 
L 131.860465 228.0816 
L 132.972757 245.4768 
L 134.08505 221.5584 
L 135.197342 234.6048 
L 136.309635 243.3024 
L 137.421927 234.6048 
L 138.534219 241.128 
L 139.646512 234.6048 
L 141.871096 230.256 
L 142.983389 241.128 
L 144.095681 241.128 
L 145.207973 232.4304 
L 146.320266 230.256 
L 147.432558 245.4768 
L 148.54485 243.3024 
L 149.657143 232.4304 
L 150.769435 232.4304 
L 151.881728 247.6512 
L 152.99402 241.128 
L 154.106312 236.7792 
L 155.218605 228.0816 
L 156.330897 245.4768 
L 157.443189 243.3024 
L 158.555482 238.9536 
L 159.667774 236.7792 
L 160.780066 241.128 
L 161.892359 230.256 
L 163.004651 225.9072 
L 164.116944 234.6048 
L 165.229236 245.4768 
L 166.341528 236.7792 
L 167.453821 238.9536 
L 168.566113 236.7792 
L 169.678405 236.7792 
L 171.90299 232.4304 
L 173.015282 236.7792 
L 174.127575 230.256 
L 175.239867 232.4304 
L 176.352159 241.128 
L 177.464452 238.9536 
L 178.576744 232.4304 
L 179.689037 236.7792 
L 180.801329 236.7792 
L 181.913621 245.4768 
L 183.025914 243.3024 
L 184.138206 243.3024 
L 185.250498 245.4768 
L 186.362791 241.128 
L 187.475083 228.0816 
L 188.587375 232.4304 
L 189.699668 225.9072 
L 190.81196 234.6048 
L 191.924252 241.128 
L 194.148837 245.4768 
L 195.26113 245.4768 
L 196.373422 230.256 
L 197.485714 230.256 
L 198.598007 234.6048 
L 199.710299 241.128 
L 200.822591 234.6048 
L 203.047176 230.256 
L 204.159468 245.4768 
L 205.271761 245.4768 
L 206.384053 236.7792 
L 207.496346 245.4768 
L 208.608638 243.3024 
L 209.72093 232.4304 
L 210.833223 241.128 
L 211.945515 243.3024 
L 213.057807 236.7792 
L 215.282392 249.8256 
L 216.394684 247.6512 
L 217.506977 241.128 
L 218.619269 241.128 
L 219.731561 243.3024 
L 220.843854 247.6512 
L 221.956146 245.4768 
L 223.068439 247.6512 
L 225.293023 234.6048 
L 226.405316 247.6512 
L 227.517608 234.6048 
L 228.6299 241.128 
L 229.742193 238.9536 
L 230.854485 243.3024 
L 231.966777 236.7792 
L 233.07907 241.128 
L 234.191362 230.256 
L 235.303654 243.3024 
L 236.415947 247.6512 
L 237.528239 238.9536 
L 238.640532 241.128 
L 239.752824 249.8256 
L 240.865116 245.4768 
L 241.977409 247.6512 
L 243.089701 236.7792 
L 244.201993 245.4768 
L 245.314286 249.8256 
L 246.426578 245.4768 
L 248.651163 245.4768 
L 249.763455 238.9536 
L 250.875748 249.8256 
L 251.98804 252 
L 253.100332 245.4768 
L 255.324917 245.4768 
L 256.437209 241.128 
L 257.549502 243.3024 
L 258.661794 238.9536 
L 259.774086 249.8256 
L 260.886379 241.128 
L 261.998671 241.128 
L 263.110963 245.4768 
L 264.223256 243.3024 
L 265.335548 252 
L 266.447841 245.4768 
L 267.560133 243.3024 
L 268.672425 247.6512 
L 269.784718 247.6512 
L 273.121595 241.128 
L 274.233887 241.128 
L 275.346179 243.3024 
L 276.458472 249.8256 
L 277.570764 249.8256 
L 278.683056 238.9536 
L 279.795349 236.7792 
L 280.907641 247.6512 
L 282.019934 234.6048 
L 283.132226 245.4768 
L 285.356811 241.128 
L 286.469103 249.8256 
L 287.581395 243.3024 
L 288.693688 247.6512 
L 289.80598 238.9536 
L 290.918272 247.6512 
L 292.030565 245.4768 
L 293.142857 241.128 
L 294.25515 245.4768 
L 295.367442 243.3024 
L 296.479734 243.3024 
L 297.592027 245.4768 
L 298.704319 241.128 
L 299.816611 247.6512 
L 300.928904 249.8256 
L 302.041196 247.6512 
L 304.265781 247.6512 
L 305.378073 243.3024 
L 308.71495 243.3024 
L 309.827243 252 
L 310.939535 252 
L 312.051827 238.9536 
L 313.16412 247.6512 
L 314.276412 245.4768 
L 315.388704 245.4768 
L 316.500997 247.6512 
L 317.613289 247.6512 
L 318.725581 249.8256 
L 319.837874 241.128 
L 320.950166 238.9536 
L 322.062458 247.6512 
L 323.174751 247.6512 
L 324.287043 249.8256 
L 325.399336 236.7792 
L 326.511628 249.8256 
L 327.62392 245.4768 
L 328.736213 249.8256 
L 329.848505 249.8256 
L 330.960797 241.128 
L 332.07309 247.6512 
L 333.185382 241.128 
L 334.297674 238.9536 
L 335.409967 238.9536 
L 336.522259 243.3024 
L 337.634551 241.128 
L 338.746844 234.6048 
L 339.859136 234.6048 
L 340.971429 236.7792 
L 342.083721 230.256 
L 343.196013 241.128 
L 344.308306 243.3024 
L 345.420598 234.6048 
L 346.53289 245.4768 
L 347.645183 245.4768 
L 348.757475 236.7792 
L 349.869767 241.128 
L 350.98206 241.128 
L 352.094352 236.7792 
L 353.206645 245.4768 
L 354.318937 249.8256 
L 355.431229 247.6512 
L 356.543522 238.9536 
L 357.655814 245.4768 
L 358.768106 243.3024 
L 359.880399 247.6512 
L 360.992691 225.9072 
L 362.104983 230.256 
L 363.217276 247.6512 
L 364.329568 249.8256 
L 365.44186 245.4768 
L 366.554153 247.6512 
L 367.666445 247.6512 
L 368.778738 243.3024 
L 369.89103 241.128 
L 371.003322 245.4768 
L 372.115615 234.6048 
L 373.227907 247.6512 
L 374.340199 241.128 
L 375.452492 241.128 
L 376.564784 245.4768 
L 377.677076 236.7792 
L 378.789369 241.128 
L 379.901661 234.6048 
L 381.013953 247.6512 
L 382.126246 238.9536 
L 383.238538 236.7792 
L 384.350831 247.6512 
L 385.463123 225.9072 
L 386.575415 247.6512 
L 387.687708 249.8256 
L 387.687708 249.8256 
" style="fill:none;stroke:#f08080;stroke-linecap:square;stroke-width:1.5;"/>
   </g>
   <g id="patch_3">
    <path d="M 54 252 
L 54 34.56 
" style="fill:none;stroke:#000000;stroke-linecap:square;stroke-linejoin:miter;stroke-width:0.8;"/>
   </g>
   <g id="patch_4">
    <path d="M 388.8 252 
L 388.8 34.56 
" style="fill:none;stroke:#000000;stroke-linecap:square;stroke-linejoin:miter;stroke-width:0.8;"/>
   </g>
   <g id="patch_5">
    <path d="M 54 252 
L 388.8 252 
" style="fill:none;stroke:#000000;stroke-linecap:square;stroke-linejoin:miter;stroke-width:0.8;"/>
   </g>
   <g id="patch_6">
    <path d="M 54 34.56 
L 388.8 34.56 
" style="fill:none;stroke:#000000;stroke-linecap:square;stroke-linejoin:miter;stroke-width:0.8;"/>
   </g>
   <g id="text_16">
    <!-- learning curve of maze runs with PPO -->
    <defs>
     <path d="M 37.109375 75.984375 
L 37.109375 68.5 
L 28.515625 68.5 
Q 23.6875 68.5 21.796875 66.546875 
Q 19.921875 64.59375 19.921875 59.515625 
L 19.921875 54.6875 
L 34.71875 54.6875 
L 34.71875 47.703125 
L 19.921875 47.703125 
L 19.921875 0 
L 10.890625 0 
L 10.890625 47.703125 
L 2.296875 47.703125 
L 2.296875 54.6875 
L 10.890625 54.6875 
L 10.890625 58.5 
Q 10.890625 67.625 15.140625 71.796875 
Q 19.390625 75.984375 28.609375 75.984375 
z
" id="DejaVuSans-102"/>
     <path d="M 52 44.1875 
Q 55.375 50.25 60.0625 53.125 
Q 64.75 56 71.09375 56 
Q 79.640625 56 84.28125 50.015625 
Q 88.921875 44.046875 88.921875 33.015625 
L 88.921875 0 
L 79.890625 0 
L 79.890625 32.71875 
Q 79.890625 40.578125 77.09375 44.375 
Q 74.3125 48.1875 68.609375 48.1875 
Q 61.625 48.1875 57.5625 43.546875 
Q 53.515625 38.921875 53.515625 30.90625 
L 53.515625 0 
L 44.484375 0 
L 44.484375 32.71875 
Q 44.484375 40.625 41.703125 44.40625 
Q 38.921875 48.1875 33.109375 48.1875 
Q 26.21875 48.1875 22.15625 43.53125 
Q 18.109375 38.875 18.109375 30.90625 
L 18.109375 0 
L 9.078125 0 
L 9.078125 54.6875 
L 18.109375 54.6875 
L 18.109375 46.1875 
Q 21.1875 51.21875 25.484375 53.609375 
Q 29.78125 56 35.6875 56 
Q 41.65625 56 45.828125 52.96875 
Q 50 49.953125 52 44.1875 
z
" id="DejaVuSans-109"/>
     <path d="M 5.515625 54.6875 
L 48.1875 54.6875 
L 48.1875 46.484375 
L 14.40625 7.171875 
L 48.1875 7.171875 
L 48.1875 0 
L 4.296875 0 
L 4.296875 8.203125 
L 38.09375 47.515625 
L 5.515625 47.515625 
z
" id="DejaVuSans-122"/>
     <path d="M 4.203125 54.6875 
L 13.1875 54.6875 
L 24.421875 12.015625 
L 35.59375 54.6875 
L 46.1875 54.6875 
L 57.421875 12.015625 
L 68.609375 54.6875 
L 77.59375 54.6875 
L 63.28125 0 
L 52.6875 0 
L 40.921875 44.828125 
L 29.109375 0 
L 18.5 0 
z
" id="DejaVuSans-119"/>
     <path d="M 54.890625 33.015625 
L 54.890625 0 
L 45.90625 0 
L 45.90625 32.71875 
Q 45.90625 40.484375 42.875 44.328125 
Q 39.84375 48.1875 33.796875 48.1875 
Q 26.515625 48.1875 22.3125 43.546875 
Q 18.109375 38.921875 18.109375 30.90625 
L 18.109375 0 
L 9.078125 0 
L 9.078125 75.984375 
L 18.109375 75.984375 
L 18.109375 46.1875 
Q 21.34375 51.125 25.703125 53.5625 
Q 30.078125 56 35.796875 56 
Q 45.21875 56 50.046875 50.171875 
Q 54.890625 44.34375 54.890625 33.015625 
z
" id="DejaVuSans-104"/>
     <path d="M 19.671875 64.796875 
L 19.671875 37.40625 
L 32.078125 37.40625 
Q 38.96875 37.40625 42.71875 40.96875 
Q 46.484375 44.53125 46.484375 51.125 
Q 46.484375 57.671875 42.71875 61.234375 
Q 38.96875 64.796875 32.078125 64.796875 
z
M 9.8125 72.90625 
L 32.078125 72.90625 
Q 44.34375 72.90625 50.609375 67.359375 
Q 56.890625 61.8125 56.890625 51.125 
Q 56.890625 40.328125 50.609375 34.8125 
Q 44.34375 29.296875 32.078125 29.296875 
L 19.671875 29.296875 
L 19.671875 0 
L 9.8125 0 
z
" id="DejaVuSans-80"/>
     <path d="M 39.40625 66.21875 
Q 28.65625 66.21875 22.328125 58.203125 
Q 16.015625 50.203125 16.015625 36.375 
Q 16.015625 22.609375 22.328125 14.59375 
Q 28.65625 6.59375 39.40625 6.59375 
Q 50.140625 6.59375 56.421875 14.59375 
Q 62.703125 22.609375 62.703125 36.375 
Q 62.703125 50.203125 56.421875 58.203125 
Q 50.140625 66.21875 39.40625 66.21875 
z
M 39.40625 74.21875 
Q 54.734375 74.21875 63.90625 63.9375 
Q 73.09375 53.65625 73.09375 36.375 
Q 73.09375 19.140625 63.90625 8.859375 
Q 54.734375 -1.421875 39.40625 -1.421875 
Q 24.03125 -1.421875 14.8125 8.828125 
Q 5.609375 19.09375 5.609375 36.375 
Q 5.609375 53.65625 14.8125 63.9375 
Q 24.03125 74.21875 39.40625 74.21875 
z
" id="DejaVuSans-79"/>
    </defs>
    <g transform="translate(108.535313 28.56)scale(0.12 -0.12)">
     <use xlink:href="#DejaVuSans-108"/>
     <use x="27.783203" xlink:href="#DejaVuSans-101"/>
     <use x="89.306641" xlink:href="#DejaVuSans-97"/>
     <use x="150.585938" xlink:href="#DejaVuSans-114"/>
     <use x="191.683594" xlink:href="#DejaVuSans-110"/>
     <use x="255.0625" xlink:href="#DejaVuSans-105"/>
     <use x="282.845703" xlink:href="#DejaVuSans-110"/>
     <use x="346.224609" xlink:href="#DejaVuSans-103"/>
     <use x="409.701172" xlink:href="#DejaVuSans-32"/>
     <use x="441.488281" xlink:href="#DejaVuSans-99"/>
     <use x="496.46875" xlink:href="#DejaVuSans-117"/>
     <use x="559.847656" xlink:href="#DejaVuSans-114"/>
     <use x="600.960938" xlink:href="#DejaVuSans-118"/>
     <use x="660.140625" xlink:href="#DejaVuSans-101"/>
     <use x="721.664062" xlink:href="#DejaVuSans-32"/>
     <use x="753.451172" xlink:href="#DejaVuSans-111"/>
     <use x="814.632812" xlink:href="#DejaVuSans-102"/>
     <use x="849.837891" xlink:href="#DejaVuSans-32"/>
     <use x="881.625" xlink:href="#DejaVuSans-109"/>
     <use x="979.037109" xlink:href="#DejaVuSans-97"/>
     <use x="1040.316406" xlink:href="#DejaVuSans-122"/>
     <use x="1092.806641" xlink:href="#DejaVuSans-101"/>
     <use x="1154.330078" xlink:href="#DejaVuSans-32"/>
     <use x="1186.117188" xlink:href="#DejaVuSans-114"/>
     <use x="1227.230469" xlink:href="#DejaVuSans-117"/>
     <use x="1290.609375" xlink:href="#DejaVuSans-110"/>
     <use x="1353.988281" xlink:href="#DejaVuSans-115"/>
     <use x="1406.087891" xlink:href="#DejaVuSans-32"/>
     <use x="1437.875" xlink:href="#DejaVuSans-119"/>
     <use x="1519.662109" xlink:href="#DejaVuSans-105"/>
     <use x="1547.445312" xlink:href="#DejaVuSans-116"/>
     <use x="1586.654297" xlink:href="#DejaVuSans-104"/>
     <use x="1650.033203" xlink:href="#DejaVuSans-32"/>
     <use x="1681.820312" xlink:href="#DejaVuSans-80"/>
     <use x="1742.123047" xlink:href="#DejaVuSans-80"/>
     <use x="1802.425781" xlink:href="#DejaVuSans-79"/>
    </g>
   </g>
   <g id="legend_1">
    <g id="patch_7">
     <path d="M 207.023438 57.238125 
L 381.8 57.238125 
Q 383.8 57.238125 383.8 55.238125 
L 383.8 41.56 
Q 383.8 39.56 381.8 39.56 
L 207.023438 39.56 
Q 205.023438 39.56 205.023438 41.56 
L 205.023438 55.238125 
Q 205.023438 57.238125 207.023438 57.238125 
z
" style="fill:#ffffff;opacity:0.8;stroke:#cccccc;stroke-linejoin:miter;"/>
    </g>
    <g id="line2d_28">
     <path d="M 209.023438 47.658437 
L 229.023438 47.658437 
" style="fill:none;stroke:#f08080;stroke-linecap:square;stroke-width:1.5;"/>
    </g>
    <g id="line2d_29"/>
    <g id="text_17">
     <!-- Uniform Sampling (baseline) -->
     <defs>
      <path d="M 8.6875 72.90625 
L 18.609375 72.90625 
L 18.609375 28.609375 
Q 18.609375 16.890625 22.84375 11.734375 
Q 27.09375 6.59375 36.625 6.59375 
Q 46.09375 6.59375 50.34375 11.734375 
Q 54.59375 16.890625 54.59375 28.609375 
L 54.59375 72.90625 
L 64.5 72.90625 
L 64.5 27.390625 
Q 64.5 13.140625 57.4375 5.859375 
Q 50.390625 -1.421875 36.625 -1.421875 
Q 22.796875 -1.421875 15.734375 5.859375 
Q 8.6875 13.140625 8.6875 27.390625 
z
" id="DejaVuSans-85"/>
      <path d="M 53.515625 70.515625 
L 53.515625 60.890625 
Q 47.90625 63.578125 42.921875 64.890625 
Q 37.9375 66.21875 33.296875 66.21875 
Q 25.25 66.21875 20.875 63.09375 
Q 16.5 59.96875 16.5 54.203125 
Q 16.5 49.359375 19.40625 46.890625 
Q 22.3125 44.4375 30.421875 42.921875 
L 36.375 41.703125 
Q 47.40625 39.59375 52.65625 34.296875 
Q 57.90625 29 57.90625 20.125 
Q 57.90625 9.515625 50.796875 4.046875 
Q 43.703125 -1.421875 29.984375 -1.421875 
Q 24.8125 -1.421875 18.96875 -0.25 
Q 13.140625 0.921875 6.890625 3.21875 
L 6.890625 13.375 
Q 12.890625 10.015625 18.65625 8.296875 
Q 24.421875 6.59375 29.984375 6.59375 
Q 38.421875 6.59375 43.015625 9.90625 
Q 47.609375 13.234375 47.609375 19.390625 
Q 47.609375 24.75 44.3125 27.78125 
Q 41.015625 30.8125 33.5 32.328125 
L 27.484375 33.5 
Q 16.453125 35.6875 11.515625 40.375 
Q 6.59375 45.0625 6.59375 53.421875 
Q 6.59375 63.09375 13.40625 68.65625 
Q 20.21875 74.21875 32.171875 74.21875 
Q 37.3125 74.21875 42.625 73.28125 
Q 47.953125 72.359375 53.515625 70.515625 
z
" id="DejaVuSans-83"/>
      <path d="M 31 75.875 
Q 24.46875 64.65625 21.28125 53.65625 
Q 18.109375 42.671875 18.109375 31.390625 
Q 18.109375 20.125 21.3125 9.0625 
Q 24.515625 -2 31 -13.1875 
L 23.1875 -13.1875 
Q 15.875 -1.703125 12.234375 9.375 
Q 8.59375 20.453125 8.59375 31.390625 
Q 8.59375 42.28125 12.203125 53.3125 
Q 15.828125 64.359375 23.1875 75.875 
z
" id="DejaVuSans-40"/>
      <path d="M 8.015625 75.875 
L 15.828125 75.875 
Q 23.140625 64.359375 26.78125 53.3125 
Q 30.421875 42.28125 30.421875 31.390625 
Q 30.421875 20.453125 26.78125 9.375 
Q 23.140625 -1.703125 15.828125 -13.1875 
L 8.015625 -13.1875 
Q 14.5 -2 17.703125 9.0625 
Q 20.90625 20.125 20.90625 31.390625 
Q 20.90625 42.671875 17.703125 53.65625 
Q 14.5 64.65625 8.015625 75.875 
z
" id="DejaVuSans-41"/>
     </defs>
     <g transform="translate(237.023438 51.158437)scale(0.1 -0.1)">
      <use xlink:href="#DejaVuSans-85"/>
      <use x="73.193359" xlink:href="#DejaVuSans-110"/>
      <use x="136.572266" xlink:href="#DejaVuSans-105"/>
      <use x="164.355469" xlink:href="#DejaVuSans-102"/>
      <use x="199.560547" xlink:href="#DejaVuSans-111"/>
      <use x="260.742188" xlink:href="#DejaVuSans-114"/>
      <use x="301.839844" xlink:href="#DejaVuSans-109"/>
      <use x="399.251953" xlink:href="#DejaVuSans-32"/>
      <use x="431.039062" xlink:href="#DejaVuSans-83"/>
      <use x="494.515625" xlink:href="#DejaVuSans-97"/>
      <use x="555.794922" xlink:href="#DejaVuSans-109"/>
      <use x="653.207031" xlink:href="#DejaVuSans-112"/>
      <use x="716.683594" xlink:href="#DejaVuSans-108"/>
      <use x="744.466797" xlink:href="#DejaVuSans-105"/>
      <use x="772.25" xlink:href="#DejaVuSans-110"/>
      <use x="835.628906" xlink:href="#DejaVuSans-103"/>
      <use x="899.105469" xlink:href="#DejaVuSans-32"/>
      <use x="930.892578" xlink:href="#DejaVuSans-40"/>
      <use x="969.90625" xlink:href="#DejaVuSans-98"/>
      <use x="1033.382812" xlink:href="#DejaVuSans-97"/>
      <use x="1094.662109" xlink:href="#DejaVuSans-115"/>
      <use x="1146.761719" xlink:href="#DejaVuSans-101"/>
      <use x="1208.285156" xlink:href="#DejaVuSans-108"/>
      <use x="1236.068359" xlink:href="#DejaVuSans-105"/>
      <use x="1263.851562" xlink:href="#DejaVuSans-110"/>
      <use x="1327.230469" xlink:href="#DejaVuSans-101"/>
      <use x="1388.753906" xlink:href="#DejaVuSans-41"/>
     </g>
    </g>
   </g>
  </g>
 </g>
 <defs>
  <clipPath id="p3067e7c471">
   <rect height="217.44" width="334.8" x="54" y="34.56"/>
  </clipPath>
 </defs>
</svg>
